<svg width="24" height="24" viewBox="0 0 24 24" fill="none" xmlns="http://www.w3.org/2000/svg">
<path fill-rule="evenodd" clip-rule="evenodd" d="M21 11.5C21 11.2239 20.7761 11 20.5 11L4.5 11C4.22386 11 4 11.2239 4 11.5C4 11.7761 4.22386 12 4.5 12L20.5 12C20.7761 12 21 11.7761 21 11.5Z" fill="#333333"/>
<path fill-rule="evenodd" clip-rule="evenodd" d="M8.35355 7.64645C8.15829 7.45118 7.84171 7.45118 7.64645 7.64645L3.79289 11.5L7.64645 15.3536C7.84171 15.5488 8.15829 15.5488 8.35355 15.3536C8.54882 15.1583 8.54882 14.8417 8.35355 14.6464L5.20711 11.5L8.35355 8.35355C8.54882 8.15829 8.54882 7.84171 8.35355 7.64645Z" fill="#333333"/>
</svg>
