<svg width="24" height="24" viewBox="0 0 24 24" fill="none" xmlns="http://www.w3.org/2000/svg">
<path fill-rule="evenodd" clip-rule="evenodd" d="M3 11.4998C3 11.2236 3.22386 10.9998 3.5 10.9998L19.5 10.9998C19.7761 10.9998 20 11.2236 20 11.4998C20 11.7759 19.7761 11.9998 19.5 11.9998L3.5 11.9998C3.22386 11.9998 3 11.7759 3 11.4998Z" fill="white"/>
<path fill-rule="evenodd" clip-rule="evenodd" d="M15.6464 7.6462C15.8417 7.45094 16.1583 7.45094 16.3536 7.6462L20.2071 11.4998L16.3536 15.3533C16.1583 15.5486 15.8417 15.5486 15.6464 15.3533C15.4512 15.158 15.4512 14.8415 15.6464 14.6462L18.7929 11.4998L15.6464 8.35331C15.4512 8.15805 15.4512 7.84146 15.6464 7.6462Z" fill="white"/>
</svg>
