<?xml version="1.0" encoding="utf-8"?>
<!-- Generator: Adobe Illustrator 20.1.0, SVG Export Plug-In . SVG Version: 6.00 Build 0)  -->
<svg version="1.1" id="Слой_1" xmlns="http://www.w3.org/2000/svg" xmlns:xlink="http://www.w3.org/1999/xlink" x="0px" y="0px"
	 viewBox="0 0 14 19" style="enable-background:new 0 0 14 19;" xml:space="preserve">
<style type="text/css">
	.st0{fill:#2C2C2C;}
	.st1{clip-path:url(#SVGID_2_);}
	.st2{fill:#FFFFFF;}
</style>
<rect class="st0" width="14" height="19"/>
<g>
	<defs>
		<rect id="SVGID_1_" width="14" height="19"/>
	</defs>
	<clipPath id="SVGID_2_">
		<use xlink:href="#SVGID_1_"  style="overflow:visible;"/>
	</clipPath>
	<g class="st1">
		<path class="st2" d="M7.4,0C2.5,0,0,3.5,0,6.5c0,1.8,0.7,3.4,2.1,3.9c0.2,0.1,0.5,0,0.5-0.3c0-0.2,0.2-0.6,0.2-0.8
			c0.1-0.3,0-0.4-0.1-0.6C2.3,8.3,2,7.6,2,6.7c0-2.6,2-5,5.1-5c2.8,0,4.3,1.7,4.3,4c0,3-1.3,5.5-3.3,5.5c-1.1,0-1.9-0.9-1.6-2
			c0.3-1.3,0.9-2.7,0.9-3.7C7.4,4.7,7,4,6,4C4.9,4,4,5.2,4,6.7c0,1,0.3,1.6,0.3,1.6S3.2,13.1,3,14c-0.4,1.7-0.1,3.7,0,3.9
			C3,18,3.2,18,3.3,17.9c0.1-0.1,1.4-1.8,1.9-3.4c0.1-0.5,0.7-2.8,0.7-2.8C6.2,12.4,7.3,13,8.4,13c3.3,0,5.6-3,5.6-7.1
			C14,2.9,11.4,0,7.4,0z"/>
	</g>
</g>
</svg>
