<?xml version="1.0" encoding="utf-8"?>
<!-- Generator: Adobe Illustrator 20.1.0, SVG Export Plug-In . SVG Version: 6.00 Build 0)  -->
<svg version="1.1" id="Слой_1" xmlns="http://www.w3.org/2000/svg" xmlns:xlink="http://www.w3.org/1999/xlink" x="0px" y="0px"
	 viewBox="0 0 14 19" style="enable-background:new 0 0 14 19;" xml:space="preserve">
<style type="text/css">
	.st0{fill:#FFFFFF;}
</style>
<path class="st0" d="M7.4,0.5C2.5,0.5,0,4,0,7c0,1.8,0.7,3.4,2.1,3.9c0.2,0.1,0.5,0,0.5-0.3c0-0.2,0.2-0.6,0.2-0.8
	c0.1-0.3,0-0.4-0.1-0.6C2.3,8.8,2,8.1,2,7.2c0-2.6,2-5,5.1-5c2.8,0,4.3,1.7,4.3,4c0,3-1.3,5.5-3.3,5.5c-1.1,0-1.9-0.9-1.6-2
	C6.8,8.4,7.4,7,7.4,6.1C7.4,5.2,7,4.5,6,4.5c-1.1,0-2,1.1-2,2.7c0,1,0.3,1.6,0.3,1.6S3.2,13.6,3,14.5c-0.4,1.7-0.1,3.7,0,3.9
	c0,0.1,0.2,0.2,0.2,0.1c0.1-0.1,1.4-1.8,1.9-3.4c0.1-0.5,0.7-2.8,0.7-2.8c0.4,0.7,1.4,1.3,2.5,1.3c3.3,0,5.6-3,5.6-7.1
	C14,3.4,11.4,0.5,7.4,0.5z"/>
</svg>
