<svg width="14" height="19" viewBox="0 0 14 19" fill="none" xmlns="http://www.w3.org/2000/svg">
<path fill-rule="evenodd" clip-rule="evenodd" d="M7.42398 0C2.48898 0 0.000976562 3.522 0.000976562 6.46C0.000976562 8.238 0.676977 9.82 2.12798 10.41C2.36598 10.507 2.57898 10.413 2.64798 10.151C2.69598 9.97 2.80998 9.512 2.85998 9.321C2.92998 9.062 2.90298 8.971 2.71098 8.745C2.29198 8.254 2.02498 7.618 2.02498 6.717C2.02498 4.104 3.98898 1.765 7.13898 1.765C9.92798 1.765 11.46 3.462 11.46 5.727C11.46 8.709 10.135 11.225 8.16698 11.225C7.08098 11.225 6.26798 10.33 6.52798 9.233C6.84098 7.924 7.44498 6.51 7.44498 5.564C7.44498 4.718 6.98898 4.012 6.04398 4.012C4.93398 4.012 4.04198 5.156 4.04198 6.688C4.04198 7.665 4.37298 8.325 4.37298 8.325C4.37298 8.325 3.23598 13.119 3.03698 13.959C2.63998 15.631 2.97798 17.681 3.00598 17.889C3.02298 18.011 3.18098 18.04 3.25298 17.948C3.35498 17.814 4.67798 16.189 5.12798 14.564C5.25498 14.104 5.85798 11.722 5.85798 11.722C6.21898 12.407 7.27398 13.011 8.39498 13.011C11.734 13.011 13.999 9.98 13.999 5.924C13.999 2.857 11.39 0 7.42398 0Z" fill="white"/>
</svg>
