<?xml version="1.0" encoding="utf-8"?>
<!-- Generator: Adobe Illustrator 20.1.0, SVG Export Plug-In . SVG Version: 6.00 Build 0)  -->
<svg version="1.1" id="Слой_1" xmlns="http://www.w3.org/2000/svg" xmlns:xlink="http://www.w3.org/1999/xlink" x="0px" y="0px"
	 viewBox="0 0 22 17" style="enable-background:new 0 0 22 17;" xml:space="preserve">
<style type="text/css">
	.st0{fill:#2C2C2C;}
	.st1{clip-path:url(#SVGID_2_);}
	.st2{fill:#FFFFFF;}
</style>
<rect class="st0" width="22" height="17"/>
<g>
	<defs>
		<rect id="SVGID_1_" width="22" height="17"/>
	</defs>
	<clipPath id="SVGID_2_">
		<use xlink:href="#SVGID_1_"  style="overflow:visible;"/>
	</clipPath>
	<g class="st1">
		<path class="st2" d="M21,1.9c-0.8,0.3-1.6,0.5-2.5,0.6c0.9-0.5,1.6-1.3,1.9-2.2c-0.8,0.5-1.8,0.8-2.7,1C16.9,0.5,15.8,0,14.5,0
			c-2.4,0-4.3,1.8-4.3,4c0,0.3,0,0.6,0.1,0.9C6.8,4.8,3.6,3.2,1.5,0.7C1.1,1.3,0.9,2,0.9,2.8c0,1.4,0.8,2.6,1.9,3.4
			c-0.7,0-1.4-0.2-2-0.5c0,0,0,0,0,0.1c0,2,1.5,3.6,3.5,4C3.9,9.7,3.6,9.8,3.2,9.8c-0.3,0-0.5,0-0.8-0.1c0.5,1.6,2.1,2.8,4,2.8
			C4.9,13.6,3,14.2,1,14.2c-0.3,0-0.7,0-1-0.1C1.9,15.3,4.2,16,6.6,16c7.9,0,12.3-6.2,12.3-11.5c0-0.2,0-0.3,0-0.5
			C19.7,3.4,20.4,2.7,21,1.9z"/>
	</g>
</g>
</svg>
