<?xml version="1.0" encoding="utf-8"?>
<!-- Generator: Adobe Illustrator 20.1.0, SVG Export Plug-In . SVG Version: 6.00 Build 0)  -->
<svg version="1.1" id="Слой_1" xmlns="http://www.w3.org/2000/svg" xmlns:xlink="http://www.w3.org/1999/xlink" x="0px" y="0px"
	 viewBox="0 0 22 17" style="enable-background:new 0 0 22 17;" xml:space="preserve">
<style type="text/css">
	.st0{fill:#FFFFFF;}
</style>
<path class="st0" d="M21.5,2.4C20.7,2.7,19.9,2.9,19,3c0.9-0.5,1.6-1.3,1.9-2.2c-0.8,0.5-1.8,0.8-2.7,1C17.4,1,16.3,0.5,15,0.5
	c-2.4,0-4.3,1.8-4.3,4c0,0.3,0,0.6,0.1,0.9C7.3,5.3,4.1,3.7,2,1.2c-0.4,0.6-0.6,1.3-0.6,2c0,1.4,0.8,2.6,1.9,3.4
	c-0.7,0-1.4-0.2-2-0.5c0,0,0,0,0,0.1c0,2,1.5,3.6,3.5,4c-0.4,0.1-0.7,0.1-1.1,0.1c-0.3,0-0.5,0-0.8-0.1C3.4,11.8,5,13,6.9,13
	c-1.5,1.1-3.3,1.7-5.4,1.7c-0.3,0-0.7,0-1-0.1c1.9,1.1,4.2,1.8,6.6,1.8c7.9,0,12.3-6.2,12.3-11.5c0-0.2,0-0.3,0-0.5
	C20.2,3.9,20.9,3.2,21.5,2.4z"/>
</svg>
