<svg width="11" height="16" viewBox="0 0 11 16" fill="none" xmlns="http://www.w3.org/2000/svg">
<path d="M1.50814 9.2492L1.51345 9.25698L5.5 15.1116L9.48655 9.25698L9.49186 9.2492L9.49745 9.24161C10.2363 8.23991 10.5723 6.879 10.4871 5.5225C10.4019 4.16584 9.89922 2.86989 9.03258 1.98859C7.08079 0.00382428 3.91955 0.00377946 1.96742 1.98859L1.50814 9.2492ZM1.50814 9.2492L1.50255 9.24161M1.50814 9.2492L1.50255 9.24161M1.50255 9.24161C0.763724 8.23991 0.42775 6.879 0.51291 5.5225M1.50255 9.24161L0.51291 5.5225M0.51291 5.5225C0.59808 4.16585 1.10077 2.86991 1.9674 1.98862L0.51291 5.5225ZM3.23807 5.53836C3.23807 6.82627 4.26679 7.88453 5.55356 7.88453C6.84032 7.88453 7.86905 6.82627 7.86905 5.53836C7.86905 4.25045 6.84032 3.19219 5.55356 3.19219C4.26679 3.19219 3.23807 4.25045 3.23807 5.53836Z" stroke="white"/>
</svg>
