<svg width="25" height="24" viewBox="0 0 25 24" fill="none" xmlns="http://www.w3.org/2000/svg">
<path fill-rule="evenodd" clip-rule="evenodd" d="M3.93506 11.5C3.93506 11.2239 4.15892 11 4.43506 11L20.4351 11C20.7112 11 20.9351 11.2239 20.9351 11.5C20.9351 11.7761 20.7112 12 20.4351 12L4.43506 12C4.15892 12 3.93506 11.7761 3.93506 11.5Z" fill="#333333"/>
<path fill-rule="evenodd" clip-rule="evenodd" d="M16.5815 7.64645C16.7768 7.45118 17.0933 7.45118 17.2886 7.64645L21.1422 11.5L17.2886 15.3536C17.0933 15.5488 16.7768 15.5488 16.5815 15.3536C16.3862 15.1583 16.3862 14.8417 16.5815 14.6464L19.728 11.5L16.5815 8.35355C16.3862 8.15829 16.3862 7.84171 16.5815 7.64645Z" fill="#333333"/>
</svg>
