<svg width="9" height="18" viewBox="0 0 9 18" fill="none" xmlns="http://www.w3.org/2000/svg">
<path fill-rule="evenodd" clip-rule="evenodd" d="M4.5 17.9998C4.22386 17.9998 4 17.7759 4 17.4998L4 1.49976C4 1.22361 4.22386 0.999758 4.5 0.999758C4.77614 0.999758 5 1.22361 5 1.49976L5 17.4998C5 17.7759 4.77614 17.9998 4.5 17.9998Z" fill="#333333"/>
<path fill-rule="evenodd" clip-rule="evenodd" d="M0.646447 5.35331C0.451184 5.15805 0.451184 4.84146 0.646447 4.6462L4.5 0.79265L8.35355 4.6462C8.54882 4.84146 8.54882 5.15805 8.35355 5.35331C8.15829 5.54857 7.84171 5.54857 7.64645 5.35331L4.5 2.20686L1.35355 5.35331C1.15829 5.54857 0.841709 5.54857 0.646447 5.35331Z" fill="#333333"/>
</svg>
