<svg width="20" height="20" viewBox="0 0 20 20" fill="none" xmlns="http://www.w3.org/2000/svg">
<path fill-rule="evenodd" clip-rule="evenodd" d="M18.512 19.013H1.48799C0.671986 19.013 0.0109863 18.434 0.0109863 17.72V2.28199C0.0109863 1.56899 0.671986 0.98999 1.48799 0.98999H18.512C19.327 0.98999 19.988 1.56899 19.988 2.28199V17.72C19.988 18.434 19.327 19.013 18.512 19.013ZM3.47299 16.044H6.41499V7.90699H3.47299V16.044ZM4.96399 3.98499C3.95699 3.98499 3.29999 4.59199 3.29999 5.39099C3.29999 6.17099 3.93799 6.79699 4.92499 6.79699H4.94399C5.96999 6.79699 6.60799 6.17099 6.60799 5.39099C6.58999 4.59199 5.96999 3.98499 4.96399 3.98499ZM17.023 11.379C17.023 8.87899 15.571 7.71599 13.636 7.71599C12.074 7.71599 11.376 8.50499 10.985 9.05999V7.90699H8.04299C8.08199 8.67099 8.04299 16.044 8.04299 16.044H10.985V11.5C10.985 11.258 11.004 11.014 11.082 10.841C11.294 10.355 11.779 9.85199 12.591 9.85199C13.656 9.85199 14.081 10.598 14.081 11.692V16.044H17.023V11.379ZM10.965 9.08699C10.971 9.07799 10.979 9.06899 10.985 9.05999V9.08699H10.965Z" fill="white"/>
</svg>
