<?xml version="1.0" encoding="utf-8"?>
<!-- Generator: Adobe Illustrator 20.1.0, SVG Export Plug-In . SVG Version: 6.00 Build 0)  -->
<svg version="1.1" id="Слой_1" xmlns="http://www.w3.org/2000/svg" xmlns:xlink="http://www.w3.org/1999/xlink" x="0px" y="0px"
	 viewBox="0 0 20 20" style="enable-background:new 0 0 20 20;" xml:space="preserve">
<style type="text/css">
	.st0{fill:#FFFFFF;}
</style>
<path class="st0" d="M18.5,19h-17C0.7,19,0,18.4,0,17.7V2.3C0,1.6,0.7,1,1.5,1h17C19.3,1,20,1.6,20,2.3v15.4
	C20,18.4,19.3,19,18.5,19z M3.5,16h2.9V7.9H3.5V16z M5,4C4,4,3.3,4.6,3.3,5.4c0,0.8,0.6,1.4,1.6,1.4h0c1,0,1.7-0.6,1.7-1.4
	C6.6,4.6,6,4,5,4z M17,11.4c0-2.5-1.5-3.7-3.4-3.7c-1.6,0-2.3,0.8-2.7,1.3V7.9H8c0,0.8,0,8.1,0,8.1H11v-4.5c0-0.2,0-0.5,0.1-0.7
	c0.2-0.5,0.7-1,1.5-1c1.1,0,1.5,0.7,1.5,1.8V16H17V11.4z M11,9.1C11,9.1,11,9.1,11,9.1L11,9.1L11,9.1z"/>
</svg>
