<svg width="18" height="9" viewBox="0 0 18 9" fill="none" xmlns="http://www.w3.org/2000/svg">
<path fill-rule="evenodd" clip-rule="evenodd" d="M0 4.49976C0 4.22361 0.223858 3.99976 0.5 3.99976L16.5 3.99976C16.7761 3.99976 17 4.22361 17 4.49976C17 4.7759 16.7761 4.99976 16.5 4.99976L0.5 4.99976C0.223858 4.99976 0 4.7759 0 4.49976Z" fill="white"/>
<path fill-rule="evenodd" clip-rule="evenodd" d="M12.6464 0.646202C12.8417 0.45094 13.1583 0.45094 13.3536 0.646202L17.2071 4.49976L13.3536 8.35331C13.1583 8.54857 12.8417 8.54857 12.6464 8.35331C12.4512 8.15805 12.4512 7.84147 12.6464 7.6462L15.7929 4.49976L12.6464 1.35331C12.4512 1.15805 12.4512 0.841465 12.6464 0.646202Z" fill="white"/>
</svg>
